<svg version="1.1" id="Layer_1" xmlns="http://www.w3.org/2000/svg" xmlns:xlink="http://www.w3.org/1999/xlink" x="0px" y="0px"
	 width="100%" viewBox="0 0 1000 1000" enable-background="new 0 0 1000 1000" xml:space="preserve">
<path fill="#FFFFFF" opacity="1.000000" stroke="none" 
	d="
M686.000000,1001.000000 
	C457.333344,1001.000000 229.166672,1001.000000 1.000000,1001.000000 
	C1.000000,667.666687 1.000000,334.333344 1.000000,1.000000 
	C334.333344,1.000000 667.666687,1.000000 1001.000000,1.000000 
	C1001.000000,334.333344 1001.000000,667.666687 1001.000000,1001.000000 
	C896.166687,1001.000000 791.333313,1001.000000 686.000000,1001.000000 
M370.071991,835.572693 
	C378.500122,836.319031 386.920929,837.600647 395.357727,837.716370 
	C427.186859,838.153076 459.021881,838.436401 490.853363,838.337585 
	C515.501892,838.261108 540.197083,838.352905 564.784790,836.901672 
	C604.768982,834.541748 643.430542,825.662354 680.352539,809.820557 
	C733.099060,787.189026 778.176208,754.502014 812.728760,708.214355 
	C848.823669,659.860474 867.924500,604.959290 874.023560,545.363098 
	C879.601257,490.862091 874.638977,437.211914 857.884033,384.970306 
	C834.331604,311.534576 790.062134,254.845184 721.229431,218.426941 
	C669.184998,190.891083 613.098145,179.032211 554.858276,178.232620 
	C427.541626,176.484650 300.208649,175.928497 172.882233,174.901108 
	C171.609406,174.890839 170.334869,175.091919 168.747421,175.219559 
	C169.028702,178.363449 169.072311,181.200043 169.569839,183.954666 
	C170.867340,191.138245 173.043533,198.234100 173.594131,205.462097 
	C174.172333,213.052811 173.070541,220.755737 173.046448,228.410721 
	C172.914276,270.402893 172.640091,312.396881 172.882355,354.387512 
	C173.249619,418.041199 174.004913,481.692657 174.588196,545.345093 
	C175.056961,596.499939 175.865860,647.654663 175.892929,698.809814 
	C175.930252,769.299316 175.359375,839.789001 175.123611,910.278931 
	C175.114380,913.038940 175.048676,916.322876 176.408783,918.480469 
	C187.256393,935.688660 199.786835,951.510071 218.179352,961.226990 
	C232.611847,968.851807 246.703278,967.942383 259.651917,957.225037 
	C268.736877,949.705505 274.822296,940.008911 279.660095,929.502625 
	C295.288177,895.562927 299.971771,859.258911 300.807556,822.525085 
	C302.020569,769.213196 298.259033,716.024109 292.620087,663.054382 
	C288.520447,624.543701 282.717957,586.204407 277.154205,547.864258 
	C274.816620,531.755981 270.603088,515.922852 268.177734,499.823761 
	C263.160187,466.517822 259.447052,433.005432 253.951782,399.783966 
	C246.854568,356.877930 235.420334,315.040863 219.332779,274.553711 
	C217.757080,270.588196 216.308624,266.572113 214.801117,262.579529 
	C247.055527,289.092163 283.733765,305.812531 323.077087,317.376526 
	C339.438507,322.185577 355.892670,325.072784 373.141357,324.992126 
	C418.303009,324.780914 463.482849,324.983704 508.626831,326.139771 
	C527.338440,326.618958 546.218323,328.693329 564.601929,332.226257 
	C612.371033,341.406616 647.855347,367.627747 669.545288,411.697845 
	C681.476318,435.939484 687.614075,461.643982 689.351501,488.502411 
	C691.759216,525.722351 688.081848,562.075134 672.874084,596.538086 
	C656.317383,634.057556 630.404053,662.283997 591.090881,676.713074 
	C567.402649,685.407288 542.802368,689.610474 517.707153,689.858337 
	C481.214325,690.218811 444.712402,689.552063 408.214233,689.532043 
	C395.909973,689.525330 383.347717,688.676086 371.349060,690.768127 
	C334.649200,697.166992 310.863953,730.957947 311.706146,764.108276 
	C312.574921,798.306091 335.964783,828.048157 370.071991,835.572693 
M602.429565,373.079407 
	C532.714233,317.818604 431.030579,328.850128 376.402649,397.600769 
	C320.062256,468.506592 330.828827,569.906128 400.655060,626.009155 
	C469.670349,681.460571 571.409973,670.968933 626.435730,602.726135 
	C683.504150,531.950073 673.103516,430.315094 602.429565,373.079407 
z"/>
<path fill="#FE4B01" opacity="1.000000" stroke="none" 
	d="
M369.672546,835.440186 
	C335.964783,828.048157 312.574921,798.306091 311.706146,764.108276 
	C310.863953,730.957947 334.649200,697.166992 371.349060,690.768127 
	C383.347717,688.676086 395.909973,689.525330 408.214233,689.532043 
	C444.712402,689.552063 481.214325,690.218811 517.707153,689.858337 
	C542.802368,689.610474 567.402649,685.407288 591.090881,676.713074 
	C630.404053,662.283997 656.317383,634.057556 672.874084,596.538086 
	C688.081848,562.075134 691.759216,525.722351 689.351501,488.502411 
	C687.614075,461.643982 681.476318,435.939484 669.545288,411.697845 
	C647.855347,367.627747 612.371033,341.406616 564.601929,332.226257 
	C546.218323,328.693329 527.338440,326.618958 508.626831,326.139771 
	C463.482849,324.983704 418.303009,324.780914 373.141357,324.992126 
	C355.892670,325.072784 339.438507,322.185577 323.077087,317.376526 
	C283.733765,305.812531 247.055527,289.092163 214.801117,262.579529 
	C216.308624,266.572113 217.757080,270.588196 219.332779,274.553711 
	C235.420334,315.040863 246.854568,356.877930 253.951782,399.783966 
	C259.447052,433.005432 263.160187,466.517822 268.177734,499.823761 
	C270.603088,515.922852 274.816620,531.755981 277.154205,547.864258 
	C282.717957,586.204407 288.520447,624.543701 292.620087,663.054382 
	C298.259033,716.024109 302.020569,769.213196 300.807556,822.525085 
	C299.971771,859.258911 295.288177,895.562927 279.660095,929.502625 
	C274.822296,940.008911 268.736877,949.705505 259.651917,957.225037 
	C246.703278,967.942383 232.611847,968.851807 218.179352,961.226990 
	C199.786835,951.510071 187.256393,935.688660 176.408783,918.480469 
	C175.048676,916.322876 175.114380,913.038940 175.123611,910.278931 
	C175.359375,839.789001 175.930252,769.299316 175.892929,698.809814 
	C175.865860,647.654663 175.056961,596.499939 174.588196,545.345093 
	C174.004913,481.692657 173.249619,418.041199 172.882355,354.387512 
	C172.640091,312.396881 172.914276,270.402893 173.046448,228.410721 
	C173.070541,220.755737 174.172333,213.052811 173.594131,205.462097 
	C173.043533,198.234100 170.867340,191.138245 169.569839,183.954666 
	C169.072311,181.200043 169.028702,178.363449 168.747421,175.219559 
	C170.334869,175.091919 171.609406,174.890839 172.882233,174.901108 
	C300.208649,175.928497 427.541626,176.484650 554.858276,178.232620 
	C613.098145,179.032211 669.184998,190.891083 721.229431,218.426941 
	C790.062134,254.845184 834.331604,311.534576 857.884033,384.970306 
	C874.638977,437.211914 879.601257,490.862091 874.023560,545.363098 
	C867.924500,604.959290 848.823669,659.860474 812.728760,708.214355 
	C778.176208,754.502014 733.099060,787.189026 680.352539,809.820557 
	C643.430542,825.662354 604.768982,834.541748 564.784790,836.901672 
	C540.197083,838.352905 515.501892,838.261108 490.853363,838.337585 
	C459.021881,838.436401 427.186859,838.153076 395.357727,837.716370 
	C386.920929,837.600647 378.500122,836.319031 369.672546,835.440186 
z"/>
<path fill="#FF4C02" opacity="1.000000" stroke="none" 
	d="
M602.705322,373.303192 
	C673.103516,430.315094 683.504150,531.950073 626.435730,602.726135 
	C571.409973,670.968933 469.670349,681.460571 400.655060,626.009155 
	C330.828827,569.906128 320.062256,468.506592 376.402649,397.600769 
	C431.030579,328.850128 532.714233,317.818604 602.705322,373.303192 
M477.231384,599.294373 
	C491.180328,603.084351 505.372864,604.034058 519.679932,602.374878 
	C542.059448,599.779419 561.153381,590.018127 577.209778,574.473999 
	C590.024719,562.067810 598.941528,547.218811 603.917969,529.920654 
	C607.917480,516.018005 608.291321,501.935364 606.780396,487.822174 
	C605.964661,480.202820 604.331482,472.406647 601.491638,465.321686 
	C594.967224,449.044128 585.239441,434.977936 571.506897,423.511627 
	C552.347229,407.513763 530.379089,399.773254 505.816925,399.576294 
	C489.427032,399.444885 473.764679,403.450409 459.134766,411.258362 
	C430.213348,426.693665 412.297363,450.859131 406.373993,482.554871 
	C400.982483,511.404449 406.819519,538.803894 425.017273,562.748291 
	C438.336182,580.273071 455.524017,592.299988 477.231384,599.294373 
z"/>
<path fill="#FFFEFD" opacity="1.000000" stroke="none" 
	d="
M476.859192,599.127502 
	C455.524017,592.299988 438.336182,580.273071 425.017273,562.748291 
	C406.819519,538.803894 400.982483,511.404449 406.373993,482.554871 
	C412.297363,450.859131 430.213348,426.693665 459.134766,411.258362 
	C473.764679,403.450409 489.427032,399.444885 505.816925,399.576294 
	C530.379089,399.773254 552.347229,407.513763 571.506897,423.511627 
	C585.239441,434.977936 594.967224,449.044128 601.491638,465.321686 
	C604.331482,472.406647 605.964661,480.202820 606.780396,487.822174 
	C608.291321,501.935364 607.917480,516.018005 603.917969,529.920654 
	C598.941528,547.218811 590.024719,562.067810 577.209778,574.473999 
	C561.153381,590.018127 542.059448,599.779419 519.679932,602.374878 
	C505.372864,604.034058 491.180328,603.084351 476.859192,599.127502 
M557.971680,508.365723 
	C557.930298,501.269623 558.915527,493.987396 557.668518,487.109894 
	C552.462463,458.397156 522.327148,439.705170 493.727448,446.882965 
	C464.956390,454.103760 447.335571,484.365753 455.609741,512.346191 
	C462.757721,536.518250 483.995972,551.811951 509.251831,550.973694 
	C532.188232,550.212524 552.447510,532.801086 557.971680,508.365723 
z"/>
<path fill="#FF4D02" opacity="1.000000" stroke="none" 
	d="
M557.910461,508.786682 
	C552.447510,532.801086 532.188232,550.212524 509.251831,550.973694 
	C483.995972,551.811951 462.757721,536.518250 455.609741,512.346191 
	C447.335571,484.365753 464.956390,454.103760 493.727448,446.882965 
	C522.327148,439.705170 552.462463,458.397156 557.668518,487.109894 
	C558.915527,493.987396 557.930298,501.269623 557.910461,508.786682 
z"/>
</svg>